# xmcd CD database file
#
# Track frame offsets:
#	150
#	18422
#	31594
#	41391
#	58538
#	70585
#	83908
#	97005
#	109953
#	123576
#
# Disc length: 1788 seconds
#
# Revision: 0
# Processed by: cddbd v1.5.2PL0 Copyright (c) Steve Scherf et al.
# Submitted via: CDex 1.70beta2
#
DISCID=7906fa0a
DTITLE=Paycheck, Johnny - USA - Cty. - Sunday Morning Coming Down
DYEAR=1900
DGENRE=Country
TTITLE0=Sunday Mornin Coming Down
TTITLE1=Honky Tonks and Slow Sad Music
TTITLE2=Sunny Side of the Mountain
TTITLE3=Julie I'm Leavin
TTITLE4=Living the Life of A Dog
TTITLE5=My Sweet Love Ain't Around
TTITLE6=I've Got Wine On My Mind
TTITLE7=Talk About Me and See What She'll Do
TTITLE8=I Feel Like Crying
TTITLE9=I Don't Know When That Will Be
EXTD=
EXTT0=
EXTT1=
EXTT2=
EXTT3=
EXTT4=
EXTT5=
EXTT6=
EXTT7=
EXTT8=
EXTT9=
PLAYORDER=
